<svg xmlns="http://www.w3.org/2000/svg" xml:space="preserve" viewBox="223.7 321.27 576.61 77.37">
    <path d="M223.7 345.48c0 12.528 10.152 22.788 22.68 22.788h48.168c4.104 0 7.452 3.348 7.452 7.452s-3.348 7.452-7.452 7.452H227.48c-1.188 0-2.268.972-2.268 2.268v10.692c0 1.188 1.08 2.268 2.268 2.268h67.068c12.528 0 22.68-10.152 22.68-22.68s-10.152-22.788-22.68-22.788H246.38c-4.104 0-7.452-3.348-7.452-7.452s3.348-7.452 7.452-7.452h67.176c1.188 0 2.268-.972 2.268-2.268v-10.692c0-1.296-1.08-2.268-2.268-2.268H246.38c-12.528 0-22.68 10.152-22.68 22.68z" style="font-variant-ligatures:normal;fill:#632bd1;stroke-width:0;stroke-miterlimit:2" transform="translate(0 -.821)"/>
    <path d="M398.73 322.8h-65.556c-1.188 0-2.268.972-2.268 2.268v10.692c0 1.296 1.08 2.268 2.268 2.268h65.556c4.104 0 7.452 3.348 7.452 7.452s-3.348 7.452-7.452 7.452h-65.556c-1.188 0-2.268 1.08-2.268 2.268v40.932c0 1.188 1.08 2.268 2.268 2.268h10.692c1.296 0 2.268-1.08 2.268-2.268v-27.864h52.596c12.528 0 22.788-10.26 22.788-22.788s-10.26-22.68-22.788-22.68z" style="font-variant-ligatures:normal;fill:#8032c1;stroke-width:0;stroke-miterlimit:2" transform="translate(0 -.821)"/>
    <path d="M511.41 383.17h-52.812c-5.832 0-10.692-4.86-10.692-10.692v-47.412c0-1.188-.972-2.268-2.268-2.268h-10.692c-1.188 0-2.268 1.08-2.268 2.268v47.412c0 14.256 11.664 25.92 25.92 25.92h52.812c1.296 0 2.268-.972 2.268-2.268v-10.692c0-1.296-.972-2.268-2.268-2.268z" style="font-variant-ligatures:normal;fill:#9d39b2;stroke-width:0;stroke-miterlimit:2" transform="translate(0 -.821)"/>
    <path d="M666.41 322.8h-58.428c-1.188 0-2.268 1.08-2.268 2.268v10.692c0 1.296 1.08 2.268 2.268 2.268h58.428c8.208 0 14.796 6.696 14.796 14.904v15.336c0 8.208-6.588 14.904-14.796 14.904h-45.468v-27.54c0-1.296-.972-2.268-2.268-2.268h-10.692c-1.188 0-2.268.972-2.268 2.268v40.5c0 1.188 1.08 2.268 2.268 2.268h58.428c16.632 0 30.132-13.5 30.132-30.132v-15.336c0-16.632-13.5-30.132-30.132-30.132z" style="font-variant-ligatures:normal;fill:#d64893;stroke-width:0;stroke-miterlimit:2" transform="translate(0 -.821)"/>
    <path d="M797.93 322.8h-86.184c-1.188 0-2.268.972-2.268 2.268v10.692c0 1.296 1.08 2.268 2.268 2.268h86.184c1.296 0 2.376-.972 2.376-2.268v-10.692c0-1.296-1.08-2.268-2.376-2.268zm0 60.372h-73.224v-14.904h57.996c1.296 0 2.268-1.08 2.268-2.376v-10.584c0-1.296-.972-2.376-2.268-2.376h-70.956c-1.188 0-2.268 1.08-2.268 2.376v40.824c0 1.188 1.08 2.268 2.268 2.268h86.184c1.296 0 2.376-1.08 2.376-2.268V385.44c0-1.296-1.08-2.268-2.376-2.268z" style="font-variant-ligatures:normal;fill:#f34f83;stroke-width:0;stroke-miterlimit:2" transform="translate(0 -.821)"/>
    <path style="fill:#b940a2;stroke-width:.46399999" d="M556.66 322.09c-.007 0-2.837 5.648-6.288 12.551a8640.808 8640.808 0 0 0-6.276 12.564c0 .007 5.654.013 12.564.013s12.564-.006 12.564-.013c0-.007-2.824-5.66-6.275-12.564a4042.98 4042.98 0 0 0-6.288-12.551zm0 27.062h-13.544l-6.772 13.544-6.772 13.544h54.176l-6.774-13.544-6.77-13.544zm0 29.023h-28.056l-5.32 10.639-5.322 10.644h77.395l-5.322-10.644-5.322-10.639z" transform="translate(0 -.821)"/>
</svg>